<svg xmlns="http://www.w3.org/2000/svg" xmlns:xlink="http://www.w3.org/1999/xlink" contentStyleType="text/css" height="719px" preserveAspectRatio="none" style="width:1003px;height:719px;background:#DDDDDD;" version="1.1" viewBox="0 0 1003 719" width="1003px" zoomAndPan="magnify"><defs/><g><rect fill="#DDDDDD" height="719" style="stroke:none;stroke-width:1.0;" width="1003" x="0" y="0"/><!--class UserAccount--><g id="elem_UserAccount"><rect codeLine="2" fill="#F1F1F1" height="194.6719" id="UserAccount" rx="3.5" ry="3.5" style="stroke:#181818;stroke-width:0.5;" width="239.083" x="146.18" y="7"/><ellipse cx="214.8162" cy="23" fill="#ADD1B2" rx="11" ry="11" style="stroke:#181818;stroke-width:1.0;"/><path d="M218.9256,29 L211.2069,29 L211.2069,16.6094 L218.9256,16.6094 L218.9256,18.7656 L213.66,18.7656 L213.66,21.4375 L218.4256,21.4375 L218.4256,23.5938 L213.66,23.5938 L213.66,26.8438 L218.9256,26.8438 L218.9256,29 Z " fill="#000000"/><text fill="#000000" font-family="sans-serif" font-size="14" lengthAdjust="spacing" textLength="93.3105" x="235.3162" y="27.8467">user_account</text><line style="stroke:#181818;stroke-width:0.5;" x1="147.18" x2="384.263" y1="39" y2="39"/><ellipse cx="157.18" cy="52.6484" fill="#000000" rx="3" ry="3" style="stroke:#000000;stroke-width:1.0;"/><text fill="#000000" font-family="sans-serif" font-size="14" lengthAdjust="spacing" textLength="82.5439" x="166.18" y="55.9951">id : INT [PK]</text><line style="stroke:#181818;stroke-width:1.0;" x1="147.18" x2="384.263" y1="63.2969" y2="63.2969"/><text fill="#000000" font-family="sans-serif" font-size="14" lengthAdjust="spacing" textLength="181.084" x="152.18" y="80.292">username : VARCHAR(50)</text><text fill="#000000" font-family="sans-serif" font-size="14" lengthAdjust="spacing" textLength="227.083" x="152.18" y="96.5889">password_hash : VARCHAR(255)</text><text fill="#000000" font-family="sans-serif" font-size="14" lengthAdjust="spacing" textLength="158.3613" x="152.18" y="112.8857">email : VARCHAR(255)</text><text fill="#000000" font-family="sans-serif" font-size="14" lengthAdjust="spacing" textLength="193.8125" x="152.18" y="129.1826">first_name : VARCHAR(100)</text><text fill="#000000" font-family="sans-serif" font-size="14" lengthAdjust="spacing" textLength="191.707" x="152.18" y="145.4795">last_name : VARCHAR(100)</text><text fill="#000000" font-family="sans-serif" font-size="14" lengthAdjust="spacing" textLength="187.626" x="152.18" y="161.7764">registered_at : TIMESTAMP</text><text fill="#000000" font-family="sans-serif" font-size="14" lengthAdjust="spacing" textLength="182.1846" x="152.18" y="178.0732">last_login_at : TIMESTAMP</text><text fill="#000000" font-family="sans-serif" font-size="14" lengthAdjust="spacing" textLength="191.707" x="152.18" y="194.3701">role : ENUM('user', 'admin')</text></g><!--class Payment--><g id="elem_Payment"><rect codeLine="15" fill="#F1F1F1" height="145.7813" id="Payment" rx="3.5" ry="3.5" style="stroke:#181818;stroke-width:0.5;" width="401.4365" x="7" y="303.12"/><ellipse cx="172.2861" cy="319.12" fill="#ADD1B2" rx="11" ry="11" style="stroke:#181818;stroke-width:1.0;"/><path d="M176.3955,325.12 L168.6768,325.12 L168.6768,312.7294 L176.3955,312.7294 L176.3955,314.8856 L171.1299,314.8856 L171.1299,317.5575 L175.8955,317.5575 L175.8955,319.7137 L171.1299,319.7137 L171.1299,322.9637 L176.3955,322.9637 L176.3955,325.12 Z " fill="#000000"/><text fill="#000000" font-family="sans-serif" font-size="14" lengthAdjust="spacing" textLength="62.3643" x="192.7861" y="323.9667">payment</text><line style="stroke:#181818;stroke-width:0.5;" x1="8" x2="407.4365" y1="335.12" y2="335.12"/><ellipse cx="18" cy="348.7684" fill="#000000" rx="3" ry="3" style="stroke:#000000;stroke-width:1.0;"/><text fill="#000000" font-family="sans-serif" font-size="14" lengthAdjust="spacing" textLength="82.5439" x="27" y="352.1151">id : INT [PK]</text><line style="stroke:#181818;stroke-width:1.0;" x1="8" x2="407.4365" y1="359.4169" y2="359.4169"/><text fill="#000000" font-family="sans-serif" font-size="14" lengthAdjust="spacing" textLength="119.6904" x="13" y="376.412">user_id : INT [FK]</text><text fill="#000000" font-family="sans-serif" font-size="14" lengthAdjust="spacing" textLength="172.7168" x="13" y="392.7089">amount : DECIMAL(10,2)</text><text fill="#000000" font-family="sans-serif" font-size="14" lengthAdjust="spacing" textLength="195.6924" x="13" y="409.0057">payment_date : TIMESTAMP</text><text fill="#000000" font-family="sans-serif" font-size="14" lengthAdjust="spacing" textLength="389.4365" x="13" y="425.3026">payment_status : ENUM('pending', 'completed', 'failed')</text><text fill="#000000" font-family="sans-serif" font-size="14" lengthAdjust="spacing" textLength="218.6133" x="13" y="441.5995">transaction_id : VARCHAR(100)</text></g><!--class Task--><g id="elem_Task"><rect codeLine="25" fill="#F1F1F1" height="194.6719" id="Task" rx="3.5" ry="3.5" style="stroke:#181818;stroke-width:0.5;" width="420.085" x="443.68" y="278.67"/><ellipse cx="634.7376" cy="294.67" fill="#ADD1B2" rx="11" ry="11" style="stroke:#181818;stroke-width:1.0;"/><path d="M638.847,300.67 L631.1282,300.67 L631.1282,288.2794 L638.847,288.2794 L638.847,290.4356 L633.5814,290.4356 L633.5814,293.1075 L638.347,293.1075 L638.347,295.2637 L633.5814,295.2637 L633.5814,298.5137 L638.847,298.5137 L638.847,300.67 Z " fill="#000000"/><text fill="#000000" font-family="sans-serif" font-size="14" lengthAdjust="spacing" textLength="29.4697" x="655.2376" y="299.5167">task</text><line style="stroke:#181818;stroke-width:0.5;" x1="444.68" x2="862.765" y1="310.67" y2="310.67"/><ellipse cx="454.68" cy="324.3184" fill="#000000" rx="3" ry="3" style="stroke:#000000;stroke-width:1.0;"/><text fill="#000000" font-family="sans-serif" font-size="14" lengthAdjust="spacing" textLength="82.5439" x="463.68" y="327.6651">id : INT [PK]</text><line style="stroke:#181818;stroke-width:1.0;" x1="444.68" x2="862.765" y1="334.9669" y2="334.9669"/><text fill="#000000" font-family="sans-serif" font-size="14" lengthAdjust="spacing" textLength="119.6904" x="449.68" y="351.962">user_id : INT [FK]</text><text fill="#000000" font-family="sans-serif" font-size="14" lengthAdjust="spacing" textLength="408.085" x="449.68" y="368.2589">status : ENUM('pending', 'processing', 'completed', 'error')</text><text fill="#000000" font-family="sans-serif" font-size="14" lengthAdjust="spacing" textLength="169.4629" x="449.68" y="384.5557">created_at : TIMESTAMP</text><text fill="#000000" font-family="sans-serif" font-size="14" lengthAdjust="spacing" textLength="174.043" x="449.68" y="400.8526">updated_at : TIMESTAMP</text><text fill="#000000" font-family="sans-serif" font-size="14" lengthAdjust="spacing" textLength="117.0107" x="449.68" y="417.1495">metadata : TEXT</text><text fill="#000000" font-family="sans-serif" font-size="14" lengthAdjust="spacing" textLength="226.8164" x="449.68" y="433.4464">result_file_path : VARCHAR(255)</text><text fill="#000000" font-family="sans-serif" font-size="14" lengthAdjust="spacing" textLength="224.1162" x="449.68" y="449.7432">error_message : VARCHAR(255)</text><text fill="#000000" font-family="sans-serif" font-size="14" lengthAdjust="spacing" textLength="130.3682" x="449.68" y="466.0401">policy_id : INT [FK]</text></g><!--class TaskFile--><g id="elem_TaskFile"><rect codeLine="38" fill="#F1F1F1" height="113.1875" id="TaskFile" rx="3.5" ry="3.5" style="stroke:#181818;stroke-width:0.5;" width="193.0088" x="304.21" y="574.79"/><ellipse cx="367.5689" cy="590.79" fill="#ADD1B2" rx="11" ry="11" style="stroke:#181818;stroke-width:1.0;"/><path d="M371.6783,596.79 L363.9595,596.79 L363.9595,584.3994 L371.6783,584.3994 L371.6783,586.5556 L366.4126,586.5556 L366.4126,589.2275 L371.1783,589.2275 L371.1783,591.3838 L366.4126,591.3838 L366.4126,594.6338 L371.6783,594.6338 L371.6783,596.79 Z " fill="#000000"/><text fill="#000000" font-family="sans-serif" font-size="14" lengthAdjust="spacing" textLength="57.791" x="388.0689" y="595.6367">task_file</text><line style="stroke:#181818;stroke-width:0.5;" x1="305.21" x2="496.2188" y1="606.79" y2="606.79"/><ellipse cx="315.21" cy="620.4384" fill="#000000" rx="3" ry="3" style="stroke:#000000;stroke-width:1.0;"/><text fill="#000000" font-family="sans-serif" font-size="14" lengthAdjust="spacing" textLength="82.5439" x="324.21" y="623.7851">id : INT [PK]</text><line style="stroke:#181818;stroke-width:1.0;" x1="305.21" x2="496.2188" y1="631.0869" y2="631.0869"/><text fill="#000000" font-family="sans-serif" font-size="14" lengthAdjust="spacing" textLength="118.624" x="310.21" y="648.082">task_id : INT [FK]</text><text fill="#000000" font-family="sans-serif" font-size="14" lengthAdjust="spacing" textLength="179.9014" x="310.21" y="664.3789">file_path : VARCHAR(255)</text><text fill="#000000" font-family="sans-serif" font-size="14" lengthAdjust="spacing" textLength="181.0088" x="310.21" y="680.6757">uploaded_at : TIMESTAMP</text></g><!--class Server--><g id="elem_Server"><rect codeLine="46" fill="#F1F1F1" height="162.0781" id="Server" rx="3.5" ry="3.5" style="stroke:#181818;stroke-width:0.5;" width="243.3691" x="532.03" y="550.34"/><ellipse cx="627.3059" cy="566.34" fill="#ADD1B2" rx="11" ry="11" style="stroke:#181818;stroke-width:1.0;"/><path d="M631.4153,572.34 L623.6965,572.34 L623.6965,559.9494 L631.4153,559.9494 L631.4153,562.1056 L626.1496,562.1056 L626.1496,564.7775 L630.9153,564.7775 L630.9153,566.9337 L626.1496,566.9337 L626.1496,570.1837 L631.4153,570.1837 L631.4153,572.34 Z " fill="#000000"/><text fill="#000000" font-family="sans-serif" font-size="14" lengthAdjust="spacing" textLength="44.3174" x="647.8059" y="571.1867">server</text><line style="stroke:#181818;stroke-width:0.5;" x1="533.03" x2="774.3991" y1="582.34" y2="582.34"/><ellipse cx="543.03" cy="595.9884" fill="#000000" rx="3" ry="3" style="stroke:#000000;stroke-width:1.0;"/><text fill="#000000" font-family="sans-serif" font-size="14" lengthAdjust="spacing" textLength="82.5439" x="552.03" y="599.3351">id : INT [PK]</text><line style="stroke:#181818;stroke-width:1.0;" x1="533.03" x2="774.3991" y1="606.6369" y2="606.6369"/><text fill="#000000" font-family="sans-serif" font-size="14" lengthAdjust="spacing" textLength="185.9307" x="538.03" y="623.632">ip_address : VARCHAR(45)</text><text fill="#000000" font-family="sans-serif" font-size="14" lengthAdjust="spacing" textLength="65.4678" x="538.03" y="639.9289">port : INT</text><text fill="#000000" font-family="sans-serif" font-size="14" lengthAdjust="spacing" textLength="197.5928" x="538.03" y="656.2257">description : VARCHAR(255)</text><text fill="#000000" font-family="sans-serif" font-size="14" lengthAdjust="spacing" textLength="231.3691" x="538.03" y="672.5226">status : ENUM('active', 'inactive')</text><text fill="#000000" font-family="sans-serif" font-size="14" lengthAdjust="spacing" textLength="169.4629" x="538.03" y="688.8195">created_at : TIMESTAMP</text><text fill="#000000" font-family="sans-serif" font-size="14" lengthAdjust="spacing" textLength="174.043" x="538.03" y="705.1164">updated_at : TIMESTAMP</text></g><!--class SchedulingPolicy--><g id="elem_SchedulingPolicy"><rect codeLine="57" fill="#F1F1F1" height="129.4844" id="SchedulingPolicy" rx="3.5" ry="3.5" style="stroke:#181818;stroke-width:0.5;" width="186.043" x="810.7" y="566.64"/><ellipse cx="839.2237" cy="582.64" fill="#ADD1B2" rx="11" ry="11" style="stroke:#181818;stroke-width:1.0;"/><path d="M843.3331,588.64 L835.6144,588.64 L835.6144,576.2494 L843.3331,576.2494 L843.3331,578.4056 L838.0675,578.4056 L838.0675,581.0775 L842.8331,581.0775 L842.8331,583.2338 L838.0675,583.2338 L838.0675,586.4838 L843.3331,586.4838 L843.3331,588.64 Z " fill="#000000"/><text fill="#000000" font-family="sans-serif" font-size="14" lengthAdjust="spacing" textLength="123.9902" x="856.229" y="587.4867">scheduling_policy</text><line style="stroke:#181818;stroke-width:0.5;" x1="811.7" x2="995.743" y1="598.64" y2="598.64"/><ellipse cx="821.7" cy="612.2884" fill="#000000" rx="3" ry="3" style="stroke:#000000;stroke-width:1.0;"/><text fill="#000000" font-family="sans-serif" font-size="14" lengthAdjust="spacing" textLength="82.5439" x="830.7" y="615.6351">id : INT [PK]</text><line style="stroke:#181818;stroke-width:1.0;" x1="811.7" x2="995.743" y1="622.9369" y2="622.9369"/><text fill="#000000" font-family="sans-serif" font-size="14" lengthAdjust="spacing" textLength="159.4551" x="816.7" y="639.932">name : VARCHAR(100)</text><text fill="#000000" font-family="sans-serif" font-size="14" lengthAdjust="spacing" textLength="130.3613" x="816.7" y="656.2289">parameters : TEXT</text><text fill="#000000" font-family="sans-serif" font-size="14" lengthAdjust="spacing" textLength="169.4629" x="816.7" y="672.5257">created_at : TIMESTAMP</text><text fill="#000000" font-family="sans-serif" font-size="14" lengthAdjust="spacing" textLength="174.043" x="816.7" y="688.8226">updated_at : TIMESTAMP</text></g><!--link UserAccount to Payment--><g id="link_UserAccount_Payment"><path codeLine="67" d="M243.2581,209.7512 C236.1081,243.0012 233.6943,254.2123 227.0343,285.1823 " fill="none" id="UserAccount-Payment" style="stroke:#454645;stroke-width:1.0;"/><line style="stroke:#454645;stroke-width:1.0;" x1="240.1885" x2="248.0097" y1="204.9997" y2="206.6815"/><line style="stroke:#454645;stroke-width:1.0;" x1="239.5578" x2="247.379" y1="207.9326" y2="209.6145"/><line style="stroke:#454645;stroke-width:1.0;" x1="243.2581" x2="244.94" y1="209.7512" y2="201.93"/><line style="stroke:#454645;stroke-width:1.0;" x1="224.9319" x2="229.1159" y1="294.9588" y2="304.0414"/><line style="stroke:#454645;stroke-width:1.0;" x1="224.9319" x2="217.3841" y1="294.9588" y2="301.5186"/><line style="stroke:#454645;stroke-width:1.0;" x1="224.9319" x2="223.25" y1="294.9588" y2="302.78"/><ellipse cx="226.1934" cy="289.0929" fill="none" rx="4" ry="4" style="stroke:#454645;stroke-width:1.0;"/><text fill="#000000" font-family="sans-serif" font-size="13" lengthAdjust="spacing" textLength="74.4453" x="239.72" y="244.7369">&#1089;&#1086;&#1074;&#1077;&#1088;&#1096;&#1072;&#1077;&#1090;</text></g><!--link UserAccount to Task--><g id="link_UserAccount_Task"><path codeLine="68" d="M392.1293,193.1955 C432.9793,221.5855 457.6392,238.7273 499.8692,268.0773 " fill="none" id="UserAccount-Task" style="stroke:#454645;stroke-width:1.0;"/><line style="stroke:#454645;stroke-width:1.0;" x1="386.5619" x2="391.1274" y1="194.1974" y2="187.6281"/><line style="stroke:#454645;stroke-width:1.0;" x1="389.0254" x2="393.5909" y1="195.9095" y2="189.3402"/><line style="stroke:#454645;stroke-width:1.0;" x1="392.1293" x2="385.56" y1="193.1955" y2="188.63"/><line style="stroke:#454645;stroke-width:1.0;" x1="508.0808" x2="518.0742" y1="273.7844" y2="273.4231"/><line style="stroke:#454645;stroke-width:1.0;" x1="508.0808" x2="511.2258" y1="273.7844" y2="283.2769"/><line style="stroke:#454645;stroke-width:1.0;" x1="508.0808" x2="514.65" y1="273.7844" y2="278.35"/><ellipse cx="503.1538" cy="270.3601" fill="none" rx="4" ry="4" style="stroke:#454645;stroke-width:1.0;"/><text fill="#000000" font-family="sans-serif" font-size="13" lengthAdjust="spacing" textLength="54.5391" x="472.72" y="244.7369">&#1089;&#1086;&#1079;&#1076;&#1072;&#1077;&#1090;</text></g><!--link Task to TaskFile--><g id="link_Task_TaskFile"><path codeLine="69" d="M551.6965,479.1802 C517.6165,513.3002 498.8293,532.1335 469.2493,561.7535 " fill="none" id="Task-TaskFile" style="stroke:#454645;stroke-width:1.0;"/><line style="stroke:#454645;stroke-width:1.0;" x1="551.6931" x2="557.3533" y1="473.5233" y2="479.1769"/><line style="stroke:#454645;stroke-width:1.0;" x1="549.5731" x2="555.2332" y1="475.6459" y2="481.2994"/><line style="stroke:#454645;stroke-width:1.0;" x1="551.6965" x2="557.35" y1="479.1802" y2="473.52"/><line style="stroke:#454645;stroke-width:1.0;" x1="462.183" x2="460.7755" y1="568.8293" y2="578.7298"/><line style="stroke:#454645;stroke-width:1.0;" x1="462.183" x2="452.2845" y1="568.8293" y2="570.2502"/><line style="stroke:#454645;stroke-width:1.0;" x1="462.183" x2="456.53" y1="568.8293" y2="574.49"/><ellipse cx="466.4228" cy="564.5838" fill="none" rx="4" ry="4" style="stroke:#454645;stroke-width:1.0;"/><text fill="#000000" font-family="sans-serif" font-size="13" lengthAdjust="spacing" textLength="68.0723" x="528.72" y="516.4069">&#1089;&#1086;&#1076;&#1077;&#1088;&#1078;&#1080;&#1090;</text></g><!--link Task to SchedulingPolicy--><g id="link_Task_SchedulingPolicy"><path codeLine="70" d="M778.6713,486.1833 C789.0413,495.9533 786.14,493.55 795.72,503.34 C814.94,523.01 829.6182,539.4496 846.9582,560.0496 " fill="none" id="Task-SchedulingPolicy" style="stroke:#454645;stroke-width:1.0;"/><line style="stroke:#454645;stroke-width:1.0;" x1="771.3928" x2="761.4556" y1="479.3259" y2="478.2071"/><line style="stroke:#454645;stroke-width:1.0;" x1="771.3928" x2="769.6844" y1="479.3259" y2="469.4729"/><line style="stroke:#454645;stroke-width:1.0;" x1="771.3928" x2="765.57" y1="479.3259" y2="473.84"/><ellipse cx="775.7599" cy="483.4403" fill="none" rx="4" ry="4" style="stroke:#454645;stroke-width:1.0;"/><line style="stroke:#454645;stroke-width:1.0;" x1="852.5943" x2="846.4739" y1="560.5339" y2="565.6857"/><line style="stroke:#454645;stroke-width:1.0;" x1="850.6624" x2="844.542" y1="558.2388" y2="563.3906"/><line style="stroke:#454645;stroke-width:1.0;" x1="846.9582" x2="852.11" y1="560.0496" y2="566.17"/><text fill="#000000" font-family="sans-serif" font-size="13" lengthAdjust="spacing" textLength="78.1968" x="811.72" y="516.4069">&#1080;&#1089;&#1087;&#1086;&#1083;&#1100;&#1079;&#1091;&#1077;&#1090;</text></g><!--link Task to Server--><g id="link_Task_Server"><path codeLine="72" d="M653.72,481.52 C653.72,506.83 653.72,507.85 653.72,532.21 " fill="none" id="Task-Server" style="stroke:#454645;stroke-width:1.0;"/><line style="stroke:#454645;stroke-width:1.0;" x1="649.72" x2="657.72" y1="477.52" y2="477.52"/><line style="stroke:#454645;stroke-width:1.0;" x1="649.72" x2="657.72" y1="480.52" y2="480.52"/><line style="stroke:#454645;stroke-width:1.0;" x1="653.72" x2="653.72" y1="481.52" y2="473.52"/><line style="stroke:#454645;stroke-width:1.0;" x1="653.72" x2="659.72" y1="542.21" y2="550.21"/><line style="stroke:#454645;stroke-width:1.0;" x1="653.72" x2="647.72" y1="542.21" y2="550.21"/><line style="stroke:#454645;stroke-width:1.0;" x1="653.72" x2="653.72" y1="542.21" y2="550.21"/><ellipse cx="653.72" cy="536.21" fill="none" rx="4" ry="4" style="stroke:#454645;stroke-width:1.0;"/><text fill="#000000" font-family="sans-serif" font-size="13" lengthAdjust="spacing" textLength="132.7739" x="654.72" y="516.4069">&#1086;&#1073;&#1088;&#1072;&#1073;&#1072;&#1090;&#1099;&#1074;&#1072;&#1077;&#1090;&#1089;&#1103; &#1085;&#1072;</text></g><!--SRC=[dLJTIXj15BxFKqnp4oq9MAatkGisKcaZGMCfbB8CksCoT7TdcPcr12DefD1YmPjUznbKafhYtolCl57Fp6xMDLcr65Zcp3dVEVETRqxcXUoHW239-YKIIYhxg1mBmXtikYmEPHbXWRR1qKZsQA-4uFSIKG_LqVf61trgl_jiVRMQNKnsYA5a7NreRAw-RMmkh2mjsb24XVZAkEVqiEZbuiihAmc019ZwHO4ToeLqPig-Mahh-lYH82TTAYJXn7Em141dlTNSwZHQxRjKdtLfM1Jbp3SrcnlRhOMAQQnIHHNi1JIiB9RsIvbY4Uu791MhdTZ_9vHp5rrBepYmEjVHc-RgUgln7ZgfBa_riwKT3qiontKQ51BBM6Ii8n9wDEmQuYuB8fz8ufdD3YWDLb9OSXmAx4hAmeJHFHLpZKeiljWkEs0ykyM7AKQSkKI88iA4SyPJlYud847XXSQHzr0e819349j0ysCddGuH-zBP0J6S2ClYgJGdEm7mmbrI18YOJzt-JACpgjaZCkdMOFEqV3PlNhv7oSQHpx0tBq2E3bpABk6MovOrdsP28mTx7eWbScU-pjhdCicpMuy8bzF835CHmPdBDrEtIym5qp2rdtl7-HRT7l5Y7-R8IIudwJRpjgtpwRuVUbGYp242huh83zEpA5UG-grkzO4Qgn5yb_1TguaQ8tseplM9kW37NwIkOFcZHle8_Ff8_m3G3LX3G5ofIId_H0y6jHhRonwYEYf3gHjrhiRwG7zNfx0EoqKPzayzXLy0dHHg_JcCdTufRcJA0hL9XjndjTfWCAysP03gKDr2rgN-gIxqKL8V9FW5FkitpUkX4G8Gr_euByIaYY3X440J1BWnuC_qDyjX0YhSt2EQZhOvrC0Ee9apTGg27OCIjZ6GxyJKEIt_0m00]--></g></svg>