<svg xmlns="http://www.w3.org/2000/svg" xmlns:xlink="http://www.w3.org/1999/xlink" contentStyleType="text/css" height="784px" preserveAspectRatio="none" style="width:552px;height:784px;background:#FFFFFF;" version="1.1" viewBox="0 0 552 784" width="552px" zoomAndPan="magnify"><defs/><g><!--class UserAccount--><g id="elem_UserAccount"><rect codeLine="3" fill="#F1F1F1" height="178.375" id="UserAccount" rx="2.5" ry="2.5" style="stroke:#181818;stroke-width:0.5;" width="331.5117" x="22.38" y="7"/><ellipse cx="139.5446" cy="23" fill="#ADD1B2" rx="11" ry="11" style="stroke:#181818;stroke-width:1.0;"/><path d="M142.5133,28.6406 Q141.9352,28.9375 141.2946,29.0781 Q140.6539,29.2344 139.9508,29.2344 Q137.4508,29.2344 136.1227,27.5938 Q134.8102,25.9375 134.8102,22.8125 Q134.8102,19.6875 136.1227,18.0313 Q137.4508,16.375 139.9508,16.375 Q140.6539,16.375 141.2946,16.5313 Q141.9508,16.6875 142.5133,16.9844 L142.5133,19.7031 Q141.8883,19.125 141.2946,18.8594 Q140.7008,18.5781 140.0758,18.5781 Q138.7321,18.5781 138.0446,19.6563 Q137.3571,20.7188 137.3571,22.8125 Q137.3571,24.9063 138.0446,25.9844 Q138.7321,27.0469 140.0758,27.0469 Q140.7008,27.0469 141.2946,26.7813 Q141.8883,26.5 142.5133,25.9219 L142.5133,28.6406 Z " fill="#000000"/><text fill="#000000" font-family="sans-serif" font-size="14" lengthAdjust="spacing" textLength="88.6826" x="160.0446" y="27.8467">UserAccount</text><line style="stroke:#181818;stroke-width:0.5;" x1="23.38" x2="352.8917" y1="39" y2="39"/><ellipse cx="33.38" cy="52.6484" fill="none" rx="3" ry="3" style="stroke:#038048;stroke-width:1.0;"/><text fill="#000000" font-family="sans-serif" font-size="14" lengthAdjust="spacing" textLength="49.5469" x="42.38" y="55.9951">id : INT</text><line style="stroke:#181818;stroke-width:1.0;" x1="23.38" x2="352.8917" y1="63.2969" y2="63.2969"/><text fill="#000000" font-family="sans-serif" font-size="14" lengthAdjust="spacing" textLength="181.084" x="28.38" y="80.292">username : VARCHAR(50)</text><text fill="#000000" font-family="sans-serif" font-size="14" lengthAdjust="spacing" textLength="227.083" x="28.38" y="96.5889">password_hash : VARCHAR(255)</text><text fill="#000000" font-family="sans-serif" font-size="14" lengthAdjust="spacing" textLength="158.3613" x="28.38" y="112.8857">email : VARCHAR(255)</text><text fill="#000000" font-family="sans-serif" font-size="14" lengthAdjust="spacing" textLength="319.5117" x="28.38" y="129.1826">permissions : ENUM('regular', 'administrator')</text><text fill="#000000" font-family="sans-serif" font-size="14" lengthAdjust="spacing" textLength="169.4629" x="28.38" y="145.4795">created_at : TIMESTAMP</text><text fill="#000000" font-family="sans-serif" font-size="14" lengthAdjust="spacing" textLength="174.043" x="28.38" y="161.7764">updated_at : TIMESTAMP</text><text fill="#000000" font-family="sans-serif" font-size="14" lengthAdjust="spacing" textLength="182.1846" x="28.38" y="178.0732">last_login_at : TIMESTAMP</text></g><!--class Payment--><g id="elem_Payment"><rect codeLine="15" fill="#F1F1F1" height="178.375" id="Payment" rx="2.5" ry="2.5" style="stroke:#181818;stroke-width:0.5;" width="246.2744" x="7" y="311.27"/><ellipse cx="94.9272" cy="327.27" fill="#ADD1B2" rx="11" ry="11" style="stroke:#181818;stroke-width:1.0;"/><path d="M97.896,332.9106 Q97.3179,333.2075 96.6772,333.3481 Q96.0366,333.5044 95.3335,333.5044 Q92.8335,333.5044 91.5054,331.8638 Q90.1929,330.2075 90.1929,327.0825 Q90.1929,323.9575 91.5054,322.3013 Q92.8335,320.645 95.3335,320.645 Q96.0366,320.645 96.6772,320.8013 Q97.3335,320.9575 97.896,321.2544 L97.896,323.9731 Q97.271,323.395 96.6772,323.1294 Q96.0835,322.8481 95.4585,322.8481 Q94.1147,322.8481 93.4272,323.9263 Q92.7397,324.9888 92.7397,327.0825 Q92.7397,329.1763 93.4272,330.2544 Q94.1147,331.3169 95.4585,331.3169 Q96.0835,331.3169 96.6772,331.0513 Q97.271,330.77 97.896,330.1919 L97.896,332.9106 Z " fill="#000000"/><text fill="#000000" font-family="sans-serif" font-size="14" lengthAdjust="spacing" textLength="61.9199" x="115.4272" y="332.1167">Payment</text><line style="stroke:#181818;stroke-width:0.5;" x1="8" x2="252.2744" y1="343.27" y2="343.27"/><ellipse cx="18" cy="356.9184" fill="none" rx="3" ry="3" style="stroke:#038048;stroke-width:1.0;"/><text fill="#000000" font-family="sans-serif" font-size="14" lengthAdjust="spacing" textLength="49.5469" x="27" y="360.2651">id : INT</text><line style="stroke:#181818;stroke-width:1.0;" x1="8" x2="252.2744" y1="367.5669" y2="367.5669"/><text fill="#000000" font-family="sans-serif" font-size="14" lengthAdjust="spacing" textLength="87.083" x="13" y="384.562">user_id : INT</text><text fill="#000000" font-family="sans-serif" font-size="14" lengthAdjust="spacing" textLength="172.7168" x="13" y="400.8589">amount : DECIMAL(10,2)</text><text fill="#000000" font-family="sans-serif" font-size="14" lengthAdjust="spacing" textLength="234.2744" x="13" y="417.1557">payment_method : VARCHAR(50)</text><text fill="#000000" font-family="sans-serif" font-size="14" lengthAdjust="spacing" textLength="223.2275" x="13" y="433.4526">payment_status : VARCHAR(50)</text><text fill="#000000" font-family="sans-serif" font-size="14" lengthAdjust="spacing" textLength="218.6133" x="13" y="449.7495">transaction_id : VARCHAR(100)</text><text fill="#000000" font-family="sans-serif" font-size="14" lengthAdjust="spacing" textLength="169.4629" x="13" y="466.0464">created_at : TIMESTAMP</text><text fill="#000000" font-family="sans-serif" font-size="14" lengthAdjust="spacing" textLength="174.043" x="13" y="482.3432">updated_at : TIMESTAMP</text></g><!--class Job--><g id="elem_Job"><rect codeLine="27" fill="#F1F1F1" height="276.1563" id="Job" rx="2.5" ry="2.5" style="stroke:#181818;stroke-width:0.5;" width="245.0781" x="288.6" y="262.38"/><ellipse cx="396.0985" cy="278.38" fill="#ADD1B2" rx="11" ry="11" style="stroke:#181818;stroke-width:1.0;"/><path d="M399.0673,284.0206 Q398.4892,284.3175 397.8485,284.4581 Q397.2079,284.6144 396.5048,284.6144 Q394.0048,284.6144 392.6767,282.9738 Q391.3642,281.3175 391.3642,278.1925 Q391.3642,275.0675 392.6767,273.4113 Q394.0048,271.755 396.5048,271.755 Q397.2079,271.755 397.8485,271.9113 Q398.5048,272.0675 399.0673,272.3644 L399.0673,275.0831 Q398.4423,274.505 397.8485,274.2394 Q397.2548,273.9581 396.6298,273.9581 Q395.286,273.9581 394.5985,275.0363 Q393.911,276.0988 393.911,278.1925 Q393.911,280.2863 394.5985,281.3644 Q395.286,282.4269 396.6298,282.4269 Q397.2548,282.4269 397.8485,282.1613 Q398.4423,281.88 399.0673,281.3019 L399.0673,284.0206 Z " fill="#000000"/><text fill="#000000" font-family="sans-serif" font-size="14" lengthAdjust="spacing" textLength="21.5811" x="416.5985" y="283.2267">Job</text><line style="stroke:#181818;stroke-width:0.5;" x1="289.6" x2="532.6781" y1="294.38" y2="294.38"/><ellipse cx="299.6" cy="308.0284" fill="none" rx="3" ry="3" style="stroke:#038048;stroke-width:1.0;"/><text fill="#000000" font-family="sans-serif" font-size="14" lengthAdjust="spacing" textLength="49.5469" x="308.6" y="311.3751">id : INT</text><line style="stroke:#181818;stroke-width:1.0;" x1="289.6" x2="532.6781" y1="318.6769" y2="318.6769"/><text fill="#000000" font-family="sans-serif" font-size="14" lengthAdjust="spacing" textLength="87.083" x="294.6" y="335.672">user_id : INT</text><text fill="#000000" font-family="sans-serif" font-size="14" lengthAdjust="spacing" textLength="147.123" x="294.6" y="351.9689">title : VARCHAR(255)</text><text fill="#000000" font-family="sans-serif" font-size="14" lengthAdjust="spacing" textLength="153.8633" x="294.6" y="368.2657">status : VARCHAR(50)</text><text fill="#000000" font-family="sans-serif" font-size="14" lengthAdjust="spacing" textLength="229.8242" x="294.6" y="384.5626">source_language : VARCHAR(50)</text><text fill="#000000" font-family="sans-serif" font-size="14" lengthAdjust="spacing" textLength="186.1221" x="294.6" y="400.8595">file_format : VARCHAR(50)</text><text fill="#000000" font-family="sans-serif" font-size="14" lengthAdjust="spacing" textLength="126.998" x="294.6" y="417.1564">description : TEXT</text><text fill="#000000" font-family="sans-serif" font-size="14" lengthAdjust="spacing" textLength="222.9131" x="294.6" y="433.4532">input_file_path : VARCHAR(255)</text><text fill="#000000" font-family="sans-serif" font-size="14" lengthAdjust="spacing" textLength="233.0781" x="294.6" y="449.7501">output_file_path : VARCHAR(255)</text><text fill="#000000" font-family="sans-serif" font-size="14" lengthAdjust="spacing" textLength="169.4629" x="294.6" y="466.047">created_at : TIMESTAMP</text><text fill="#000000" font-family="sans-serif" font-size="14" lengthAdjust="spacing" textLength="174.043" x="294.6" y="482.3439">updated_at : TIMESTAMP</text><text fill="#000000" font-family="sans-serif" font-size="14" lengthAdjust="spacing" textLength="86.7686" x="294.6" y="498.6407">host_id : INT</text><text fill="#000000" font-family="sans-serif" font-size="14" lengthAdjust="spacing" textLength="224.1162" x="294.6" y="514.9376">error_message : VARCHAR(255)</text><text fill="#000000" font-family="sans-serif" font-size="14" lengthAdjust="spacing" textLength="97.7607" x="294.6" y="531.2345">policy_id : INT</text></g><!--class Host--><g id="elem_Host"><rect codeLine="46" fill="#F1F1F1" height="162.0781" id="Host" rx="2.5" ry="2.5" style="stroke:#181818;stroke-width:0.5;" width="209.5928" x="306.34" y="615.53"/><ellipse cx="390.9484" cy="631.53" fill="#ADD1B2" rx="11" ry="11" style="stroke:#181818;stroke-width:1.0;"/><path d="M393.9171,637.1706 Q393.339,637.4675 392.6984,637.6081 Q392.0578,637.7644 391.3546,637.7644 Q388.8546,637.7644 387.5265,636.1238 Q386.214,634.4675 386.214,631.3425 Q386.214,628.2175 387.5265,626.5613 Q388.8546,624.905 391.3546,624.905 Q392.0578,624.905 392.6984,625.0613 Q393.3546,625.2175 393.9171,625.5144 L393.9171,628.2331 Q393.2921,627.655 392.6984,627.3894 Q392.1046,627.1081 391.4796,627.1081 Q390.1359,627.1081 389.4484,628.1863 Q388.7609,629.2488 388.7609,631.3425 Q388.7609,633.4363 389.4484,634.5144 Q390.1359,635.5769 391.4796,635.5769 Q392.1046,635.5769 392.6984,635.3113 Q393.2921,635.03 393.9171,634.4519 L393.9171,637.1706 Z " fill="#000000"/><text fill="#000000" font-family="sans-serif" font-size="14" lengthAdjust="spacing" textLength="31.876" x="411.4484" y="636.3767">Host</text><line style="stroke:#181818;stroke-width:0.5;" x1="307.34" x2="514.9328" y1="647.53" y2="647.53"/><ellipse cx="317.34" cy="661.1784" fill="none" rx="3" ry="3" style="stroke:#038048;stroke-width:1.0;"/><text fill="#000000" font-family="sans-serif" font-size="14" lengthAdjust="spacing" textLength="49.5469" x="326.34" y="664.5251">id : INT</text><line style="stroke:#181818;stroke-width:1.0;" x1="307.34" x2="514.9328" y1="671.8269" y2="671.8269"/><text fill="#000000" font-family="sans-serif" font-size="14" lengthAdjust="spacing" textLength="189.6768" x="312.34" y="688.822">hostname : VARCHAR(255)</text><text fill="#000000" font-family="sans-serif" font-size="14" lengthAdjust="spacing" textLength="175.0615" x="312.34" y="705.1189">address : VARCHAR(255)</text><text fill="#000000" font-family="sans-serif" font-size="14" lengthAdjust="spacing" textLength="197.5928" x="312.34" y="721.4157">description : VARCHAR(255)</text><text fill="#000000" font-family="sans-serif" font-size="14" lengthAdjust="spacing" textLength="153.8633" x="312.34" y="737.7126">status : VARCHAR(50)</text><text fill="#000000" font-family="sans-serif" font-size="14" lengthAdjust="spacing" textLength="169.4629" x="312.34" y="754.0095">created_at : TIMESTAMP</text><text fill="#000000" font-family="sans-serif" font-size="14" lengthAdjust="spacing" textLength="174.043" x="312.34" y="770.3064">updated_at : TIMESTAMP</text></g><!--link UserAccount to Payment--><g id="link_UserAccount_Payment"><path codeLine="60" d="M169.621,193.6964 C162.061,233.0564 158.0901,253.7621 150.5401,293.1321 " fill="none" id="UserAccount-Payment" style="stroke:#181818;stroke-width:1.0;"/><line style="stroke:#181818;stroke-width:1.0;" x1="166.4473" x2="174.3037" y1="189.0137" y2="190.5227"/><line style="stroke:#181818;stroke-width:1.0;" x1="165.8814" x2="173.7378" y1="191.9598" y2="193.4688"/><line style="stroke:#181818;stroke-width:1.0;" x1="169.621" x2="171.13" y1="193.6964" y2="185.84"/><line style="stroke:#181818;stroke-width:1.0;" x1="148.6567" x2="153.0426" y1="302.9532" y2="311.94"/><line style="stroke:#181818;stroke-width:1.0;" x1="148.6567" x2="141.2574" y1="302.9532" y2="309.68"/><line style="stroke:#181818;stroke-width:1.0;" x1="148.6567" x2="147.15" y1="302.9532" y2="310.81"/><ellipse cx="149.7867" cy="297.0605" fill="none" rx="4" ry="4" style="stroke:#181818;stroke-width:1.0;"/><text fill="#000000" font-family="sans-serif" font-size="13" lengthAdjust="spacing" textLength="74.4453" x="166.14" y="228.4469">&#1089;&#1086;&#1074;&#1077;&#1088;&#1096;&#1072;&#1077;&#1090;</text></g><!--link UserAccount to Job--><g id="link_UserAccount_Job"><path codeLine="62" d="M258.2889,192.278 C275.8889,216.138 279.9206,221.6077 299.0006,247.4577 " fill="none" id="UserAccount-Job" style="stroke:#181818;stroke-width:1.0;"/><line style="stroke:#181818;stroke-width:1.0;" x1="252.6955" x2="259.1335" y1="191.4335" y2="186.6845"/><line style="stroke:#181818;stroke-width:1.0;" x1="254.4763" x2="260.9143" y1="193.8477" y2="189.0988"/><line style="stroke:#181818;stroke-width:1.0;" x1="258.2889" x2="253.54" y1="192.278" y2="185.84"/><line style="stroke:#181818;stroke-width:1.0;" x1="304.9391" x2="314.5174" y1="255.5034" y2="258.3769"/><line style="stroke:#181818;stroke-width:1.0;" x1="304.9391" x2="304.8626" y1="255.5034" y2="265.5031"/><line style="stroke:#181818;stroke-width:1.0;" x1="304.9391" x2="309.69" y1="255.5034" y2="261.94"/><ellipse cx="301.376" cy="250.676" fill="none" rx="4" ry="4" style="stroke:#181818;stroke-width:1.0;"/><text fill="#000000" font-family="sans-serif" font-size="13" lengthAdjust="spacing" textLength="54.5391" x="287.14" y="228.4469">&#1089;&#1086;&#1079;&#1076;&#1072;&#1077;&#1090;</text></g><!--link Job to Host--><g id="link_Job_Host"><path codeLine="65" d="M411.14,546.61 C411.14,572.82 411.14,573.45 411.14,597.15 " fill="none" id="Job-Host" style="stroke:#181818;stroke-width:1.0;"/><line style="stroke:#181818;stroke-width:1.0;" x1="407.14" x2="415.14" y1="542.61" y2="542.61"/><line style="stroke:#181818;stroke-width:1.0;" x1="407.14" x2="415.14" y1="545.61" y2="545.61"/><line style="stroke:#181818;stroke-width:1.0;" x1="411.14" x2="411.14" y1="546.61" y2="538.61"/><line style="stroke:#181818;stroke-width:1.0;" x1="411.14" x2="417.14" y1="607.15" y2="615.15"/><line style="stroke:#181818;stroke-width:1.0;" x1="411.14" x2="405.14" y1="607.15" y2="615.15"/><line style="stroke:#181818;stroke-width:1.0;" x1="411.14" x2="411.14" y1="607.15" y2="615.15"/><ellipse cx="411.14" cy="601.15" fill="none" rx="4" ry="4" style="stroke:#181818;stroke-width:1.0;"/><text fill="#000000" font-family="sans-serif" font-size="13" lengthAdjust="spacing" textLength="132.7739" x="412.14" y="581.5969">&#1086;&#1073;&#1088;&#1072;&#1073;&#1072;&#1090;&#1099;&#1074;&#1072;&#1077;&#1090;&#1089;&#1103; &#1085;&#1072;</text></g><!--SRC=[dLJTQjim5BxtKuZSEAKDf8NSvCvqWMOifNHfwPtHB3KHs9QHP4Pf1sq6Oz2Bla6VmItDcctzUGNfZNOirsaIdAsBGHZf-yxHETyvEYxIr_hPdEknleFr6zQZdkWnqhzWavaBSw6Vz2sgcv7Ez0sSJSotDSS9GYmbEf1KU470qrYXKmV1juuOGMtKtUtRRQDXVodmOXnHG0wz_UqTRx_UQgvPA04_dxaW_X3BuGo-rMeL11fX5bO12HKHavBnM0BSsJterLr11sc8XRk1N4mY5ZEf15PSk8L982XMbFXOWKM_s-jyx7kzlIB4X2o385NbXtp0uaNqIod47Zw9w1j4yES075dbskXTPxlRypxKDviRMwKirg4VKJNaf5AtWY0LLgci843YiSI10dsAMql2PhEvgXhJVD_pJ_-Pgs8gf5LbN9g0vAa8g1_YU93YGLNl7BEG-iTSH3RCHPHG6GYMv0BaINIEYa1OdAJAjwO9LfKjnrFrJyvghJJaq4fpkb0Xk80oIpcVuskRyv059wz6K8EN8ko0ixzM8RzjuTbDtM9215nQ1SqBz_Q2hTHFZhji0i7akJLN-XuEVYBz0ByV-ivydPrC6HnF76Ts39sTDHhyTFeWswXMJ30zDkVcErYCpQXMQPBtT4c_XrXAgfC3BnmhEP20SWCXvnCnCoDp2Vuj7QAwGX1_Lli3]--></g></svg>