<svg xmlns="http://www.w3.org/2000/svg" xmlns:xlink="http://www.w3.org/1999/xlink" contentStyleType="text/css" height="928px" preserveAspectRatio="none" style="width:444px;height:928px;background:#FFFFFF;" version="1.1" viewBox="0 0 444 928" width="444px" zoomAndPan="magnify"><defs/><g><!--class UserAccount--><g id="elem_UserAccount"><rect codeLine="3" fill="#CCCCCC" height="144.4375" id="UserAccount" rx="2.5" ry="2.5" style="stroke:#AAAAAA;stroke-width:0.5;" width="263.0449" x="174.82" y="7"/><ellipse cx="266.1847" cy="20" fill="#ADD1B2" rx="8" ry="8" style="stroke:#181818;stroke-width:1.0;"/><path d="M263.2004,15.9844 L268.7785,15.9844 L268.7785,17.5469 L265.2629,17.5469 L265.2629,19.0313 L268.5597,19.0313 L268.5597,20.5938 L265.2629,20.5938 L265.2629,22.4375 L268.8879,22.4375 L268.8879,24 L263.2004,24 L263.2004,15.9844 Z " fill="#000000"/><text fill="#333333" font-family="Verdana" font-size="11" lengthAdjust="spacing" textLength="73.3154" x="282.1847" y="23.8081">user_account</text><line style="stroke:#AAAAAA;stroke-width:0.5;" x1="175.82" x2="436.8649" y1="33" y2="33"/><ellipse cx="185.82" cy="44.4023" fill="#000000" rx="3" ry="3" style="stroke:#000000;stroke-width:1.0;"/><text fill="#333333" font-family="sans-serif" font-size="11" lengthAdjust="spacing" textLength="64.856" x="191.82" y="47.2104">id : INT [PK]</text><line style="stroke:#AAAAAA;stroke-width:1.0;" x1="175.82" x2="436.8649" y1="53.8047" y2="53.8047"/><text fill="#333333" font-family="sans-serif" font-size="11" lengthAdjust="spacing" textLength="142.2803" x="180.82" y="68.0151">username : VARCHAR(50)</text><text fill="#333333" font-family="sans-serif" font-size="11" lengthAdjust="spacing" textLength="178.4224" x="180.82" y="80.8198">password_hash : VARCHAR(255)</text><text fill="#333333" font-family="sans-serif" font-size="11" lengthAdjust="spacing" textLength="124.4268" x="180.82" y="93.6245">email : VARCHAR(255)</text><text fill="#333333" font-family="sans-serif" font-size="11" lengthAdjust="spacing" textLength="251.0449" x="180.82" y="106.4292">permissions : ENUM('regular', 'administrator')</text><text fill="#333333" font-family="sans-serif" font-size="11" lengthAdjust="spacing" textLength="133.1494" x="180.82" y="119.2339">created_at : TIMESTAMP</text><text fill="#333333" font-family="sans-serif" font-size="11" lengthAdjust="spacing" textLength="136.748" x="180.82" y="132.0386">updated_at : TIMESTAMP</text><text fill="#333333" font-family="sans-serif" font-size="11" lengthAdjust="spacing" textLength="143.145" x="180.82" y="144.8433">last_login_at : TIMESTAMP</text></g><!--class Payment--><g id="elem_Payment"><rect codeLine="15" fill="#CCCCCC" height="157.2422" id="Payment" rx="2.5" ry="2.5" style="stroke:#AAAAAA;stroke-width:0.5;" width="282.687" x="7" y="225.44"/><ellipse cx="120.3433" cy="238.44" fill="#ADD1B2" rx="8" ry="8" style="stroke:#181818;stroke-width:1.0;"/><path d="M117.3589,234.4244 L122.937,234.4244 L122.937,235.9869 L119.4214,235.9869 L119.4214,237.4713 L122.7183,237.4713 L122.7183,239.0338 L119.4214,239.0338 L119.4214,240.8775 L123.0464,240.8775 L123.0464,242.44 L117.3589,242.44 L117.3589,234.4244 Z " fill="#000000"/><text fill="#333333" font-family="Verdana" font-size="11" lengthAdjust="spacing" textLength="49.0005" x="136.3433" y="242.2481">payment</text><line style="stroke:#AAAAAA;stroke-width:0.5;" x1="8" x2="288.687" y1="251.44" y2="251.44"/><ellipse cx="18" cy="262.8423" fill="#000000" rx="3" ry="3" style="stroke:#000000;stroke-width:1.0;"/><text fill="#333333" font-family="sans-serif" font-size="11" lengthAdjust="spacing" textLength="64.856" x="24" y="265.6504">id : INT [PK]</text><line style="stroke:#AAAAAA;stroke-width:1.0;" x1="8" x2="288.687" y1="272.2447" y2="272.2447"/><text fill="#333333" font-family="sans-serif" font-size="11" lengthAdjust="spacing" textLength="94.0425" x="13" y="286.4551">user_id : INT [FK]</text><text fill="#333333" font-family="sans-serif" font-size="11" lengthAdjust="spacing" textLength="270.687" x="13" y="299.2598">job_id : INT [FK]  -- &#1057;&#1074;&#1103;&#1079;&#1100; &#1089; &#1082;&#1086;&#1085;&#1082;&#1088;&#1077;&#1090;&#1085;&#1086;&#1081; &#1079;&#1072;&#1076;&#1072;&#1095;&#1077;&#1081;</text><text fill="#333333" font-family="sans-serif" font-size="11" lengthAdjust="spacing" textLength="135.7061" x="13" y="312.0645">amount : DECIMAL(10,2)</text><text fill="#333333" font-family="sans-serif" font-size="11" lengthAdjust="spacing" textLength="184.0728" x="13" y="324.8692">payment_method : VARCHAR(50)</text><text fill="#333333" font-family="sans-serif" font-size="11" lengthAdjust="spacing" textLength="175.3931" x="13" y="337.6739">payment_status : VARCHAR(50)</text><text fill="#333333" font-family="sans-serif" font-size="11" lengthAdjust="spacing" textLength="171.7676" x="13" y="350.4786">transaction_id : VARCHAR(100)</text><text fill="#333333" font-family="sans-serif" font-size="11" lengthAdjust="spacing" textLength="133.1494" x="13" y="363.2833">created_at : TIMESTAMP</text><text fill="#333333" font-family="sans-serif" font-size="11" lengthAdjust="spacing" textLength="136.748" x="13" y="376.0879">updated_at : TIMESTAMP</text></g><!--class Job--><g id="elem_Job"><rect codeLine="28" fill="#CCCCCC" height="221.2656" id="Job" rx="2.5" ry="2.5" style="stroke:#AAAAAA;stroke-width:0.5;" width="232.1558" x="138.27" y="456.68"/><ellipse cx="242.4636" cy="469.68" fill="#ADD1B2" rx="8" ry="8" style="stroke:#181818;stroke-width:1.0;"/><path d="M239.4792,465.6644 L245.0574,465.6644 L245.0574,467.2269 L241.5417,467.2269 L241.5417,468.7113 L244.8386,468.7113 L244.8386,470.2738 L241.5417,470.2738 L241.5417,472.1175 L245.1667,472.1175 L245.1667,473.68 L239.4792,473.68 L239.4792,465.6644 Z " fill="#000000"/><text fill="#333333" font-family="Verdana" font-size="11" lengthAdjust="spacing" textLength="16.7686" x="258.4636" y="473.4881">job</text><line style="stroke:#AAAAAA;stroke-width:0.5;" x1="139.27" x2="369.4258" y1="482.68" y2="482.68"/><ellipse cx="149.27" cy="494.0823" fill="#000000" rx="3" ry="3" style="stroke:#000000;stroke-width:1.0;"/><text fill="#333333" font-family="sans-serif" font-size="11" lengthAdjust="spacing" textLength="64.856" x="155.27" y="496.8904">id : INT [PK]</text><line style="stroke:#AAAAAA;stroke-width:1.0;" x1="139.27" x2="369.4258" y1="503.4847" y2="503.4847"/><text fill="#333333" font-family="sans-serif" font-size="11" lengthAdjust="spacing" textLength="94.0425" x="144.27" y="517.6951">user_id : INT [FK]</text><text fill="#333333" font-family="sans-serif" font-size="11" lengthAdjust="spacing" textLength="115.5967" x="144.27" y="530.4998">title : VARCHAR(255)</text><text fill="#333333" font-family="sans-serif" font-size="11" lengthAdjust="spacing" textLength="120.8926" x="144.27" y="543.3045">status : VARCHAR(50)</text><text fill="#333333" font-family="sans-serif" font-size="11" lengthAdjust="spacing" textLength="180.5762" x="144.27" y="556.1092">source_language : VARCHAR(50)</text><text fill="#333333" font-family="sans-serif" font-size="11" lengthAdjust="spacing" textLength="146.2388" x="144.27" y="568.9139">file_format : VARCHAR(50)</text><text fill="#333333" font-family="sans-serif" font-size="11" lengthAdjust="spacing" textLength="99.7842" x="144.27" y="581.7186">description : TEXT</text><text fill="#333333" font-family="sans-serif" font-size="11" lengthAdjust="spacing" textLength="175.146" x="144.27" y="594.5233">input_file_path : VARCHAR(255)</text><text fill="#333333" font-family="sans-serif" font-size="11" lengthAdjust="spacing" textLength="183.1328" x="144.27" y="607.3279">output_file_path : VARCHAR(255)</text><text fill="#333333" font-family="sans-serif" font-size="11" lengthAdjust="spacing" textLength="220.1558" x="144.27" y="620.1326">estimated_finish_datetime : TIMESTAMP</text><text fill="#333333" font-family="sans-serif" font-size="11" lengthAdjust="spacing" textLength="133.1494" x="144.27" y="632.9373">created_at : TIMESTAMP</text><text fill="#333333" font-family="sans-serif" font-size="11" lengthAdjust="spacing" textLength="136.748" x="144.27" y="645.742">updated_at : TIMESTAMP</text><text fill="#333333" font-family="sans-serif" font-size="11" lengthAdjust="spacing" textLength="93.7954" x="144.27" y="658.5467">host_id : INT [FK]</text><text fill="#333333" font-family="sans-serif" font-size="11" lengthAdjust="spacing" textLength="176.0913" x="144.27" y="671.3514">error_message : VARCHAR(255)</text></g><!--class Host--><g id="elem_Host"><rect codeLine="46" fill="#CCCCCC" height="170.0469" id="Host" rx="2.5" ry="2.5" style="stroke:#AAAAAA;stroke-width:0.5;" width="167.2515" x="170.72" y="751.94"/><ellipse cx="238.9729" cy="764.94" fill="#ADD1B2" rx="8" ry="8" style="stroke:#181818;stroke-width:1.0;"/><path d="M235.9886,760.9244 L241.5667,760.9244 L241.5667,762.4869 L238.0511,762.4869 L238.0511,763.9713 L241.3479,763.9713 L241.3479,765.5338 L238.0511,765.5338 L238.0511,767.3775 L241.6761,767.3775 L241.6761,768.94 L235.9886,768.94 L235.9886,760.9244 Z " fill="#000000"/><text fill="#333333" font-family="Verdana" font-size="11" lengthAdjust="spacing" textLength="23.7456" x="254.9729" y="768.7481">host</text><line style="stroke:#AAAAAA;stroke-width:0.5;" x1="171.72" x2="336.9715" y1="777.94" y2="777.94"/><ellipse cx="181.72" cy="789.3423" fill="#000000" rx="3" ry="3" style="stroke:#000000;stroke-width:1.0;"/><text fill="#333333" font-family="sans-serif" font-size="11" lengthAdjust="spacing" textLength="64.856" x="187.72" y="792.1504">id : INT [PK]</text><line style="stroke:#AAAAAA;stroke-width:1.0;" x1="171.72" x2="336.9715" y1="798.7447" y2="798.7447"/><text fill="#333333" font-family="sans-serif" font-size="11" lengthAdjust="spacing" textLength="149.0317" x="176.72" y="812.9551">hostname : VARCHAR(255)</text><text fill="#333333" font-family="sans-serif" font-size="11" lengthAdjust="spacing" textLength="137.5483" x="176.72" y="825.7598">address : VARCHAR(255)</text><text fill="#333333" font-family="sans-serif" font-size="11" lengthAdjust="spacing" textLength="155.2515" x="176.72" y="838.5645">description : VARCHAR(255)</text><text fill="#333333" font-family="sans-serif" font-size="11" lengthAdjust="spacing" textLength="120.8926" x="176.72" y="851.3692">status : VARCHAR(50)</text><text fill="#333333" font-family="sans-serif" font-size="11" lengthAdjust="spacing" textLength="140.2231" x="176.72" y="864.1739">cpu_info : VARCHAR(255)</text><text fill="#333333" font-family="sans-serif" font-size="11" lengthAdjust="spacing" textLength="141.1577" x="176.72" y="876.9786">gpu_info : VARCHAR(255)</text><text fill="#333333" font-family="sans-serif" font-size="11" lengthAdjust="spacing" textLength="97.1631" x="176.72" y="889.7833">ram_size_gb : INT</text><text fill="#333333" font-family="sans-serif" font-size="11" lengthAdjust="spacing" textLength="133.1494" x="176.72" y="902.5879">created_at : TIMESTAMP</text><text fill="#333333" font-family="sans-serif" font-size="11" lengthAdjust="spacing" textLength="136.748" x="176.72" y="915.3926">updated_at : TIMESTAMP</text></g><!--link UserAccount to Payment--><g id="link_UserAccount_Payment"><path codeLine="61" d="M251.0733,158.1664 C234.4633,181.5964 230.9605,186.5259 214.0305,210.4059 " fill="none" id="UserAccount-Payment" style="stroke:#000000;stroke-width:1.0;"/><line style="stroke:#000000;stroke-width:1.0;" x1="250.1235" x2="256.6499" y1="152.5899" y2="157.2165"/><line style="stroke:#000000;stroke-width:1.0;" x1="248.3885" x2="254.9148" y1="155.0372" y2="159.6639"/><line style="stroke:#000000;stroke-width:1.0;" x1="251.0733" x2="255.7" y1="158.1664" y2="151.64"/><line style="stroke:#000000;stroke-width:1.0;" x1="208.2469" x2="208.5147" y1="218.5637" y2="228.5602"/><line style="stroke:#000000;stroke-width:1.0;" x1="208.2469" x2="198.7253" y1="218.5637" y2="221.6198"/><line style="stroke:#000000;stroke-width:1.0;" x1="208.2469" x2="203.62" y1="218.5637" y2="225.09"/><ellipse cx="211.717" cy="213.669" fill="none" rx="4" ry="4" style="stroke:#000000;stroke-width:1.0;"/><text fill="#333333" font-family="Verdana" font-size="11" lengthAdjust="spacing" textLength="62.9922" x="233.34" y="192.6504">&#1089;&#1086;&#1074;&#1077;&#1088;&#1096;&#1072;&#1077;&#1090;</text></g><!--link UserAccount to Job--><g id="link_UserAccount_Job"><path codeLine="62" d="M306.988,159.8598 C307.158,183.3098 307.26,201.48 307.34,225.44 C307.58,295.32 317.13,313.48 307.34,382.68 C303.93,406.83 302.87,414.8908 296.3,438.8508 " fill="none" id="UserAccount-Job" style="stroke:#000000;stroke-width:1.0;"/><line style="stroke:#000000;stroke-width:1.0;" x1="302.9591" x2="310.9589" y1="155.8889" y2="155.8309"/><line style="stroke:#000000;stroke-width:1.0;" x1="302.9809" x2="310.9806" y1="158.8888" y2="158.8308"/><line style="stroke:#000000;stroke-width:1.0;" x1="306.988" x2="306.93" y1="159.8598" y2="151.86"/><line style="stroke:#000000;stroke-width:1.0;" x1="293.6556" x2="297.3264" y1="448.4948" y2="457.7967"/><line style="stroke:#000000;stroke-width:1.0;" x1="293.6556" x2="285.7536" y1="448.4948" y2="454.6233"/><line style="stroke:#000000;stroke-width:1.0;" x1="293.6556" x2="291.54" y1="448.4948" y2="456.21"/><ellipse cx="295.2422" cy="442.7084" fill="none" rx="4" ry="4" style="stroke:#000000;stroke-width:1.0;"/><text fill="#333333" font-family="Verdana" font-size="11" lengthAdjust="spacing" textLength="46.1484" x="312.34" y="308.2704">&#1089;&#1086;&#1079;&#1076;&#1072;&#1077;&#1090;</text></g><!--link Payment to Job--><g id="link_Payment_Job"><path codeLine="63" d="M186.7725,399.7673 C196.1125,422.7673 196.721,424.2974 206.711,448.9074 " fill="none" id="Payment-Job" style="stroke:#000000;stroke-width:1.0;"/><line style="stroke:#000000;stroke-width:1.0;" x1="183.01" x2="174.4409" y1="390.5022" y2="385.3475"/><line style="stroke:#000000;stroke-width:1.0;" x1="183.01" x2="185.5591" y1="390.5022" y2="380.8325"/><line style="stroke:#000000;stroke-width:1.0;" x1="183.01" x2="180" y1="390.5022" y2="383.09"/><ellipse cx="185.2675" cy="396.0613" fill="none" rx="4" ry="4" style="stroke:#000000;stroke-width:1.0;"/><line style="stroke:#000000;stroke-width:1.0;" x1="211.9218" x2="204.5092" y1="451.1092" y2="454.1182"/><line style="stroke:#000000;stroke-width:1.0;" x1="210.7934" x2="203.3809" y1="448.3295" y2="451.3385"/><line style="stroke:#000000;stroke-width:1.0;" x1="206.711" x2="209.72" y1="448.9074" y2="456.32"/><text fill="#333333" font-family="Verdana" font-size="11" lengthAdjust="spacing" textLength="67.7402" x="196.34" y="423.8904">&#1086;&#1087;&#1083;&#1072;&#1095;&#1080;&#1074;&#1072;&#1077;&#1090;</text></g><!--link Job to Host--><g id="link_Job_Host"><path codeLine="64" d="M254.34,696.34 C254.34,720.85 254.34,720.46 254.34,743.74 " fill="none" id="Job-Host" style="stroke:#000000;stroke-width:1.0;"/><line style="stroke:#000000;stroke-width:1.0;" x1="254.34" x2="248.34" y1="686.34" y2="678.34"/><line style="stroke:#000000;stroke-width:1.0;" x1="254.34" x2="260.34" y1="686.34" y2="678.34"/><line style="stroke:#000000;stroke-width:1.0;" x1="254.34" x2="254.34" y1="686.34" y2="678.34"/><ellipse cx="254.34" cy="692.34" fill="none" rx="4" ry="4" style="stroke:#000000;stroke-width:1.0;"/><line style="stroke:#000000;stroke-width:1.0;" x1="258.34" x2="250.34" y1="747.74" y2="747.74"/><line style="stroke:#000000;stroke-width:1.0;" x1="258.34" x2="250.34" y1="744.74" y2="744.74"/><line style="stroke:#000000;stroke-width:1.0;" x1="254.34" x2="254.34" y1="743.74" y2="751.74"/><text fill="#333333" font-family="Verdana" font-size="11" lengthAdjust="spacing" textLength="112.3472" x="255.34" y="719.1504">&#1086;&#1073;&#1088;&#1072;&#1073;&#1072;&#1090;&#1099;&#1074;&#1072;&#1077;&#1090;&#1089;&#1103; &#1085;&#1072;</text></g><!--SRC=[dLJTIXj15BxFKqnp4rjSY49kSXTiYcaR2JQMGYd3P7UoEsLtPvcPfLWZMBreImk-GQ5l4CNKdsfyXTatwfdPHAEkLRAmxEHytvcSyvsV9ogW4KM2UfwWKZeXymFL2rDQAj5OCRM9ogca0XFNvMcioeX8j066HluRRPKGFCyGyr0TjTQww7tdrGThSnpxCTunWR-eexUDzPNLnlf2hVhKGWcHyXCN7Ww836RmvLej9z28iB08IAY8c9ICnnBWvjf6Uw4Yg9-6H5GMKOLu4OkPL88eBYgvYoieKTJ3H857jzLklkassfqynCIx3mg9L3ZaFejlezlN0YLaCw8JRJhv-N6wu6lqnGJzo7ithSO1wT_wCDlNnzbFb7r1-aoFzOK-otRqADk5qrYV8dsiX_f83xElUgHFxLqaiYMge-VDbLQxyNfXgRguF9NUXeaZgWBk5TOc9qX5L2eB221kB8che0Pvm5F2KhKwh-8pce8ELi-Nl3Utbd1JI8lQvzwa94-5It58OZybVb7Fzbb8SP-Bo8P-6_MeT0LBZ2WciUQxhZMpE4aLjgu9KOMjpbFr88TAnIAhMz-qTu2DY62YT_IThza33ir-LqOg11VGALBUbCJ6DLCousvhjWg7XujcwBSMmrMc9Dz6HT1DYHzVMZT9COlxlCZ9_mycI8Gb-qontyiJcR-tAqZ_qfTcQc5GH_ell1VwH8zWflFnDfEBz3by_kYZR0_isLxstGmud7Q1SQvFIhFRTp1m7BvrjNJgg0nNZVKXx8MTx1ii1DWFvI8FCrPJzh5P6pbpUj4sTvp1OCe2pYL4QrRB2TmzuHfmmhC5pua7aDvG7m1vD_in9KFq-mZI69R_0G00]--></g></svg>